<?xml version="1.0" encoding="utf-8" ?>
<svg baseProfile="tiny" height="100%" version="1.2" width="100%" xmlns="http://www.w3.org/2000/svg" xmlns:ev="http://www.w3.org/2001/xml-events" xmlns:xlink="http://www.w3.org/1999/xlink"><defs /><path d="M 731,688 L 731,763 L 746,763 L 746,688 Z" fill="black" stroke="none" /><path d="M 638,688 L 638,763 L 653,763 L 653,732 L 654,731 L 686,731 L 687,732 L 687,763 L 702,763 L 702,688 L 687,688 L 687,717 L 686,718 L 654,718 L 653,717 L 653,688 Z" fill="black" stroke="none" /><path d="M 552,688 L 552,701 L 574,701 L 575,702 L 575,763 L 590,763 L 589,762 L 589,702 L 590,701 L 613,701 L 613,688 Z" fill="black" stroke="none" /><path d="M 467,688 L 467,701 L 489,701 L 490,702 L 490,763 L 505,763 L 505,702 L 506,701 L 528,701 L 528,688 Z" fill="black" stroke="none" /><path d="M 402,688 L 402,689 L 401,690 L 401,692 L 400,693 L 400,695 L 399,696 L 399,697 L 398,698 L 398,700 L 397,701 L 397,703 L 396,704 L 396,706 L 395,707 L 395,709 L 394,710 L 394,712 L 393,713 L 393,714 L 392,715 L 392,717 L 391,718 L 391,720 L 390,721 L 390,723 L 389,724 L 389,725 L 388,726 L 388,728 L 387,729 L 387,731 L 386,732 L 386,734 L 385,735 L 385,737 L 384,738 L 384,740 L 383,741 L 383,742 L 382,743 L 382,745 L 381,746 L 381,748 L 380,749 L 380,751 L 379,752 L 379,754 L 378,755 L 378,756 L 377,757 L 377,759 L 376,760 L 376,762 L 375,763 L 391,763 L 391,762 L 392,761 L 392,759 L 393,758 L 393,757 L 394,756 L 394,754 L 395,753 L 395,751 L 396,750 L 396,748 L 397,747 L 425,747 L 426,748 L 426,749 L 427,750 L 427,752 L 428,753 L 428,755 L 429,756 L 429,757 L 430,758 L 430,760 L 431,761 L 431,763 L 447,763 L 447,762 L 446,761 L 446,760 L 445,759 L 445,757 L 444,756 L 444,754 L 443,753 L 443,751 L 442,750 L 442,749 L 441,748 L 441,746 L 440,745 L 440,743 L 439,742 L 439,740 L 438,739 L 438,738 L 437,737 L 437,735 L 436,734 L 436,732 L 435,731 L 435,730 L 434,729 L 434,727 L 433,726 L 433,724 L 432,723 L 432,721 L 431,720 L 431,719 L 430,718 L 430,716 L 429,715 L 429,713 L 428,712 L 428,710 L 427,709 L 427,707 L 426,706 L 426,705 L 425,704 L 425,702 L 424,701 L 424,699 L 423,698 L 423,696 L 422,695 L 422,693 L 421,692 L 421,691 L 420,690 L 420,688 Z" fill="black" stroke="none" /><path d="M 293,688 L 293,763 L 308,763 L 308,737 L 309,736 L 320,736 L 322,738 L 322,739 L 323,740 L 323,741 L 324,742 L 324,743 L 326,745 L 326,746 L 327,747 L 327,748 L 328,749 L 328,750 L 329,751 L 329,752 L 330,753 L 330,754 L 332,756 L 332,757 L 333,758 L 333,759 L 334,760 L 334,761 L 335,762 L 335,763 L 353,763 L 353,762 L 351,760 L 351,759 L 350,758 L 350,757 L 349,756 L 349,755 L 347,753 L 347,752 L 346,751 L 346,750 L 345,749 L 345,748 L 343,746 L 343,745 L 342,744 L 342,743 L 340,741 L 340,740 L 339,739 L 339,738 L 338,737 L 338,736 L 337,735 L 337,734 L 338,733 L 339,733 L 340,732 L 341,732 L 342,731 L 343,731 L 348,726 L 348,725 L 349,724 L 349,723 L 350,722 L 350,720 L 351,719 L 351,706 L 350,705 L 350,703 L 349,702 L 349,701 L 348,700 L 348,699 L 347,698 L 347,697 L 343,693 L 342,693 L 340,691 L 338,691 L 337,690 L 335,690 L 334,689 L 331,689 L 330,688 Z" fill="black" stroke="none" /><path d="M 710,563 L 710,564 L 711,565 L 711,567 L 712,568 L 712,570 L 713,571 L 713,572 L 714,573 L 714,575 L 715,576 L 715,578 L 716,579 L 716,581 L 717,582 L 717,584 L 718,585 L 718,586 L 719,587 L 719,589 L 720,590 L 720,592 L 721,593 L 721,594 L 722,595 L 722,597 L 723,598 L 723,600 L 724,601 L 724,603 L 725,604 L 725,606 L 726,607 L 726,608 L 727,609 L 727,611 L 728,612 L 728,614 L 729,615 L 729,617 L 730,618 L 730,620 L 731,621 L 731,622 L 732,623 L 732,625 L 733,626 L 733,628 L 734,629 L 734,630 L 735,631 L 735,633 L 736,634 L 736,636 L 737,637 L 737,639 L 738,640 L 738,642 L 739,643 L 739,644 L 740,645 L 740,647 L 741,648 L 741,650 L 742,651 L 742,653 L 743,654 L 743,655 L 763,655 L 763,654 L 764,653 L 764,651 L 765,650 L 765,648 L 766,647 L 766,645 L 767,644 L 767,642 L 768,641 L 768,640 L 769,639 L 769,637 L 770,636 L 770,634 L 771,633 L 771,631 L 772,630 L 772,629 L 773,628 L 773,626 L 774,625 L 774,623 L 775,622 L 775,620 L 776,619 L 776,618 L 777,617 L 777,615 L 778,614 L 778,612 L 779,611 L 779,609 L 780,608 L 780,606 L 781,605 L 781,603 L 782,602 L 782,601 L 783,600 L 783,598 L 784,597 L 784,595 L 785,594 L 785,593 L 786,592 L 786,590 L 787,589 L 787,587 L 788,586 L 788,584 L 789,583 L 789,581 L 790,580 L 790,579 L 791,578 L 791,576 L 792,575 L 792,573 L 793,572 L 793,570 L 794,569 L 794,567 L 795,566 L 795,564 L 796,563 L 776,563 L 776,565 L 775,566 L 775,568 L 774,569 L 774,571 L 773,572 L 773,574 L 772,575 L 772,577 L 771,578 L 771,580 L 770,581 L 770,583 L 769,584 L 769,585 L 768,586 L 768,588 L 767,589 L 767,591 L 766,592 L 766,594 L 765,595 L 765,597 L 764,598 L 764,600 L 763,601 L 763,603 L 762,604 L 762,606 L 761,607 L 761,609 L 760,610 L 760,612 L 759,613 L 759,615 L 758,616 L 758,618 L 757,619 L 757,621 L 756,622 L 756,624 L 755,625 L 755,627 L 754,628 L 754,629 L 753,630 L 752,629 L 752,627 L 751,626 L 751,625 L 750,624 L 750,622 L 749,621 L 749,619 L 748,618 L 748,616 L 747,615 L 747,613 L 746,612 L 746,610 L 745,609 L 745,607 L 744,606 L 744,604 L 743,603 L 743,601 L 742,600 L 742,598 L 741,597 L 741,595 L 740,594 L 740,592 L 739,591 L 739,589 L 738,588 L 738,586 L 737,585 L 737,583 L 736,582 L 736,580 L 735,579 L 735,578 L 734,577 L 734,575 L 733,574 L 733,572 L 732,571 L 732,569 L 731,568 L 731,566 L 730,565 L 730,563 Z" fill="black" stroke="none" /><path d="M 652,563 L 652,564 L 651,565 L 651,567 L 650,568 L 650,569 L 649,570 L 649,572 L 648,573 L 648,575 L 647,576 L 647,578 L 646,579 L 646,581 L 645,582 L 645,584 L 644,585 L 644,586 L 643,587 L 643,589 L 642,590 L 642,592 L 641,593 L 641,595 L 640,596 L 640,598 L 639,599 L 639,600 L 638,601 L 638,603 L 637,604 L 637,606 L 636,607 L 636,609 L 635,610 L 635,611 L 634,612 L 634,614 L 633,615 L 633,617 L 632,618 L 632,620 L 631,621 L 631,623 L 630,624 L 630,626 L 629,627 L 629,628 L 628,629 L 628,631 L 627,632 L 627,634 L 626,635 L 626,637 L 625,638 L 625,640 L 624,641 L 624,642 L 623,643 L 623,645 L 622,646 L 622,648 L 621,649 L 621,651 L 620,652 L 620,653 L 619,654 L 619,655 L 638,655 L 639,654 L 639,653 L 640,652 L 640,650 L 641,649 L 641,647 L 642,646 L 642,644 L 643,643 L 643,642 L 644,641 L 644,639 L 645,638 L 645,637 L 646,636 L 681,636 L 682,637 L 682,639 L 683,640 L 683,641 L 684,642 L 684,644 L 685,645 L 685,647 L 686,648 L 686,649 L 687,650 L 687,652 L 688,653 L 688,655 L 708,655 L 707,654 L 707,652 L 706,651 L 706,650 L 705,649 L 705,647 L 704,646 L 704,644 L 703,643 L 703,642 L 702,641 L 702,639 L 701,638 L 701,636 L 700,635 L 700,634 L 699,633 L 699,631 L 698,630 L 698,628 L 697,627 L 697,626 L 696,625 L 696,623 L 695,622 L 695,620 L 694,619 L 694,617 L 693,616 L 693,615 L 692,614 L 692,612 L 691,611 L 691,609 L 690,608 L 690,607 L 689,606 L 689,604 L 688,603 L 688,601 L 687,600 L 687,598 L 686,597 L 686,596 L 685,595 L 685,593 L 684,592 L 684,590 L 683,589 L 683,588 L 682,587 L 682,585 L 681,584 L 681,582 L 680,581 L 680,579 L 679,578 L 679,577 L 678,576 L 678,574 L 677,573 L 677,571 L 676,570 L 676,568 L 675,567 L 675,566 L 674,565 L 674,563 Z" fill="black" stroke="none" /><path d="M 518,563 L 518,655 L 537,655 L 536,654 L 536,617 L 537,616 L 576,616 L 577,617 L 576,618 L 576,655 L 595,655 L 594,654 L 594,564 L 595,563 L 576,563 L 576,597 L 577,598 L 575,600 L 572,600 L 571,599 L 570,599 L 569,600 L 567,600 L 566,599 L 539,599 L 538,600 L 536,598 L 536,564 L 537,563 Z" fill="black" stroke="none" /><path d="M 337,563 L 337,655 L 397,655 L 397,639 L 356,639 L 355,638 L 355,617 L 356,616 L 392,616 L 392,600 L 391,601 L 356,601 L 355,600 L 355,580 L 356,579 L 397,579 L 397,563 Z" fill="black" stroke="none" /><path d="M 234,563 L 234,655 L 253,655 L 253,613 L 254,612 L 256,614 L 256,615 L 259,618 L 259,619 L 264,624 L 264,625 L 268,629 L 268,630 L 273,635 L 273,636 L 277,640 L 277,641 L 281,645 L 281,646 L 285,650 L 285,651 L 289,655 L 314,655 L 309,650 L 309,649 L 304,644 L 304,643 L 299,638 L 299,637 L 295,633 L 295,632 L 290,627 L 290,626 L 285,621 L 285,620 L 280,615 L 280,614 L 276,610 L 276,609 L 274,607 L 274,606 L 278,602 L 278,601 L 283,596 L 283,595 L 288,590 L 288,589 L 293,584 L 293,583 L 297,579 L 297,578 L 302,573 L 302,572 L 307,567 L 307,566 L 310,563 L 288,563 L 285,566 L 285,567 L 280,572 L 280,573 L 275,578 L 275,579 L 271,583 L 271,584 L 266,589 L 266,590 L 262,594 L 262,595 L 257,600 L 257,601 L 254,604 L 253,603 L 253,563 Z" fill="black" stroke="none" /><path d="M 449,560 L 448,561 L 445,561 L 444,562 L 442,562 L 441,563 L 440,563 L 439,564 L 438,564 L 437,565 L 436,565 L 429,572 L 429,573 L 427,575 L 427,576 L 426,577 L 426,579 L 425,580 L 425,584 L 424,585 L 424,591 L 425,592 L 425,596 L 426,597 L 426,599 L 428,601 L 428,602 L 430,604 L 430,605 L 432,607 L 433,607 L 435,609 L 436,609 L 438,611 L 439,611 L 440,612 L 442,612 L 443,613 L 444,613 L 445,614 L 447,614 L 448,615 L 451,615 L 452,616 L 454,616 L 455,617 L 458,617 L 459,618 L 461,618 L 462,619 L 463,619 L 464,620 L 465,620 L 466,621 L 467,621 L 471,625 L 471,626 L 472,627 L 472,633 L 471,634 L 471,635 L 466,640 L 465,640 L 464,641 L 462,641 L 461,642 L 451,642 L 450,641 L 448,641 L 447,640 L 446,640 L 445,639 L 444,639 L 438,633 L 438,632 L 437,631 L 437,630 L 436,629 L 436,628 L 435,628 L 434,629 L 433,629 L 431,631 L 430,631 L 428,633 L 427,633 L 425,635 L 424,635 L 423,636 L 422,636 L 421,637 L 421,639 L 422,640 L 422,641 L 424,643 L 424,644 L 431,651 L 432,651 L 434,653 L 435,653 L 436,654 L 437,654 L 438,655 L 439,655 L 440,656 L 443,656 L 444,657 L 447,657 L 448,658 L 465,658 L 466,657 L 469,657 L 470,656 L 472,656 L 473,655 L 474,655 L 475,654 L 476,654 L 477,653 L 478,653 L 480,651 L 481,651 L 487,645 L 487,644 L 488,643 L 488,642 L 489,641 L 489,640 L 490,639 L 490,637 L 491,636 L 491,622 L 490,621 L 490,620 L 489,619 L 489,618 L 488,617 L 488,616 L 487,615 L 487,614 L 482,609 L 481,609 L 479,607 L 478,607 L 477,606 L 476,606 L 475,605 L 474,605 L 473,604 L 472,604 L 471,603 L 469,603 L 468,602 L 466,602 L 465,601 L 463,601 L 462,600 L 459,600 L 458,599 L 456,599 L 455,598 L 453,598 L 452,597 L 451,597 L 450,596 L 449,596 L 447,594 L 446,594 L 445,593 L 445,592 L 443,590 L 443,583 L 444,582 L 444,581 L 449,576 L 451,576 L 452,575 L 462,575 L 463,576 L 465,576 L 467,578 L 468,578 L 471,581 L 471,582 L 473,584 L 473,585 L 474,586 L 474,587 L 475,586 L 476,586 L 477,585 L 478,585 L 480,583 L 481,583 L 483,581 L 484,581 L 485,580 L 486,580 L 488,578 L 487,577 L 487,576 L 486,575 L 486,574 L 484,572 L 484,571 L 479,566 L 478,566 L 477,565 L 476,565 L 474,563 L 472,563 L 471,562 L 469,562 L 468,561 L 465,561 L 464,560 Z" fill="black" stroke="none" /><path d="M 363,269 L 363,515 L 364,514 L 402,514 L 403,515 L 404,514 L 404,443 L 410,437 L 410,436 L 416,430 L 416,429 L 424,421 L 424,420 L 428,416 L 429,416 L 432,419 L 432,420 L 435,423 L 435,424 L 438,427 L 438,428 L 441,431 L 441,432 L 444,435 L 444,436 L 447,439 L 447,440 L 450,443 L 450,444 L 453,447 L 453,448 L 456,451 L 456,452 L 459,455 L 459,456 L 462,459 L 462,460 L 465,463 L 465,464 L 468,467 L 468,468 L 472,472 L 472,473 L 475,476 L 475,477 L 478,480 L 478,481 L 481,484 L 481,485 L 484,488 L 484,489 L 487,492 L 487,493 L 491,497 L 491,498 L 493,500 L 493,501 L 497,505 L 497,506 L 500,509 L 500,510 L 503,513 L 503,514 L 504,515 L 505,514 L 517,514 L 518,515 L 519,514 L 550,514 L 551,515 L 552,515 L 552,514 L 549,511 L 549,510 L 546,507 L 546,506 L 543,503 L 543,502 L 540,499 L 540,498 L 537,495 L 537,494 L 534,491 L 534,490 L 531,487 L 531,486 L 528,483 L 528,482 L 525,479 L 525,478 L 523,476 L 523,475 L 520,472 L 520,471 L 517,468 L 517,467 L 514,464 L 514,463 L 511,460 L 511,459 L 508,456 L 508,455 L 506,453 L 506,452 L 503,449 L 503,448 L 500,445 L 500,444 L 497,441 L 497,440 L 494,437 L 494,436 L 491,433 L 491,432 L 489,430 L 489,429 L 486,426 L 486,425 L 483,422 L 483,421 L 480,418 L 480,417 L 477,414 L 477,413 L 474,410 L 474,409 L 471,406 L 471,405 L 468,402 L 468,401 L 466,399 L 466,398 L 463,395 L 463,394 L 460,391 L 460,390 L 457,387 L 457,386 L 456,385 L 463,378 L 463,377 L 470,370 L 470,369 L 477,362 L 477,361 L 484,354 L 484,353 L 491,346 L 491,345 L 498,338 L 498,337 L 505,330 L 505,329 L 513,321 L 513,320 L 519,314 L 519,313 L 525,307 L 581,307 L 582,308 L 587,308 L 588,309 L 591,309 L 592,310 L 593,310 L 594,311 L 596,311 L 597,312 L 598,312 L 600,314 L 601,314 L 604,317 L 605,317 L 609,321 L 609,322 L 613,326 L 613,327 L 614,328 L 614,329 L 615,330 L 615,331 L 616,332 L 616,333 L 617,334 L 617,336 L 618,337 L 618,340 L 619,341 L 619,359 L 618,360 L 618,363 L 617,364 L 617,366 L 616,367 L 616,368 L 615,369 L 615,370 L 614,371 L 614,372 L 613,373 L 613,374 L 611,376 L 611,377 L 599,389 L 598,389 L 596,391 L 595,391 L 594,392 L 593,392 L 592,393 L 591,393 L 590,394 L 588,394 L 587,395 L 583,395 L 582,396 L 526,396 L 526,397 L 528,399 L 528,400 L 531,403 L 531,404 L 534,407 L 534,408 L 537,411 L 537,412 L 540,415 L 540,416 L 543,419 L 543,420 L 546,423 L 546,424 L 549,427 L 549,428 L 552,431 L 552,432 L 555,435 L 555,436 L 558,439 L 558,440 L 561,443 L 561,444 L 564,447 L 564,448 L 566,450 L 566,451 L 569,454 L 569,455 L 572,458 L 572,459 L 575,462 L 575,463 L 578,466 L 578,467 L 581,470 L 581,471 L 584,474 L 584,475 L 587,478 L 587,479 L 590,482 L 590,483 L 593,486 L 593,487 L 596,490 L 596,491 L 599,494 L 599,495 L 602,498 L 602,499 L 605,502 L 605,503 L 608,506 L 608,507 L 611,510 L 611,511 L 613,513 L 613,514 L 659,514 L 660,515 L 660,514 L 657,511 L 657,510 L 655,508 L 655,507 L 652,504 L 652,503 L 649,500 L 649,499 L 646,496 L 646,495 L 643,492 L 643,491 L 641,489 L 641,488 L 638,485 L 638,484 L 635,481 L 635,480 L 632,477 L 632,476 L 629,473 L 629,472 L 627,470 L 627,469 L 624,466 L 624,465 L 621,462 L 621,461 L 618,458 L 618,457 L 615,454 L 615,453 L 612,450 L 612,449 L 609,446 L 609,445 L 607,443 L 607,442 L 604,439 L 604,438 L 601,435 L 601,434 L 598,431 L 598,430 L 596,428 L 597,427 L 600,427 L 601,426 L 604,426 L 605,425 L 607,425 L 608,424 L 610,424 L 611,423 L 612,423 L 613,422 L 614,422 L 615,421 L 616,421 L 617,420 L 618,420 L 619,419 L 620,419 L 623,416 L 624,416 L 629,411 L 630,411 L 639,402 L 639,401 L 643,397 L 643,396 L 645,394 L 645,393 L 647,391 L 647,390 L 648,389 L 648,388 L 649,387 L 649,386 L 650,385 L 650,384 L 651,383 L 651,382 L 652,381 L 652,380 L 653,379 L 653,378 L 654,377 L 654,374 L 655,373 L 655,371 L 656,370 L 656,367 L 657,366 L 657,361 L 658,360 L 658,340 L 657,339 L 657,334 L 656,333 L 656,329 L 655,328 L 655,326 L 654,325 L 654,323 L 653,322 L 653,320 L 652,319 L 652,318 L 651,317 L 651,315 L 650,314 L 650,313 L 649,312 L 649,311 L 648,310 L 648,309 L 647,308 L 647,307 L 645,305 L 645,304 L 643,302 L 643,301 L 639,297 L 639,296 L 630,287 L 629,287 L 626,284 L 625,284 L 623,282 L 622,282 L 621,281 L 620,281 L 618,279 L 617,279 L 616,278 L 615,278 L 614,277 L 613,277 L 612,276 L 610,276 L 609,275 L 608,275 L 607,274 L 605,274 L 604,273 L 602,273 L 601,272 L 598,272 L 597,271 L 594,271 L 593,270 L 589,270 L 588,269 L 511,269 L 507,273 L 507,274 L 500,281 L 500,282 L 491,291 L 491,292 L 484,299 L 484,300 L 477,307 L 477,308 L 469,316 L 469,317 L 462,324 L 462,325 L 454,333 L 454,334 L 446,342 L 446,343 L 439,350 L 439,351 L 432,358 L 432,359 L 424,367 L 424,368 L 417,375 L 417,376 L 408,385 L 408,386 L 405,389 L 404,388 L 404,269 Z" fill="black" stroke="none" /></svg>